/* XPM */
static char *_645448564749[] = {
/* columns rows colors chars-per-pixel */
"32 32 61 1 ",
"  c black",
". c #010000",
"X c #000100",
"o c #010100",
"O c #000101",
"+ c #020000",
"@ c #030000",
"# c #030001",
"$ c #030101",
"% c #000200",
"& c #000300",
"* c #020200",
"= c #030300",
"- c #000202",
"; c #040001",
": c #050001",
"> c #040301",
", c #010400",
"< c #010500",
"1 c #010700",
"2 c #030600",
"3 c #040400",
"4 c #070700",
"5 c #000404",
"6 c #000607",
"7 c #000707",
"8 c #080001",
"9 c #0C0002",
"0 c #0E0002",
"q c #0F0003",
"w c #110003",
"e c #130003",
"r c #150003",
"t c gray26",
"y c #5A5A5A",
"u c gray49",
"i c #B61F08",
"p c #FE002A",
"a c #FF002A",
"s c #26E000",
"d c #27E800",
"f c #58EA53",
"g c #D9D900",
"h c #DBDB00",
"j c #0005FE",
"k c #0004FF",
"l c #0007FE",
"z c #060AF8",
"x c #00B2B5",
"c c #00B6B9",
"v c #00B7BA",
"b c #01B7BA",
"n c #00B8BB",
"m c #868686",
"M c #968C90",
"N c #8E9790",
"B c #939395",
"V c #929396",
"C c #939396",
"Z c #929495",
"A c #919497",
/* pixels */
"uuuuuuuuuuuuuuuuuuuuuuuuuuuuuuuu",
"uttttttttttttttttttttttttttttttu",
"ut                            tu",
"ut m                        u tu",
"ut  kkkkklkkkkkkkkkkkkkzkkkk  tu",
"ut  k   6n   a:        h   k  tu",
"ut  k   nn   aq       hh3  k  tu",
"ut  k   n7   ar      h     k  tu",
"ut  k  n6    aw    hh      k  tu",
"ut  k  n    :a8   h 3      k  tu",
"ut  k  5n   :a    h5       k  tu",
"ut  k   nn 5CCCCCCCC       k  tu",
"ut  k    nnbCfCiCCyC       k  tu",
"ut  k       CCCCCCyCsss    k  tu",
"ut  k   8qaaMCCCCCyC 5 s5  k  tu",
"ut  k   :aq CyyyCCCC  5s   k  tu",
"ut  k5  5a  CCCCCCCC    s  k  tu",
"ut  kddddaddNyCyyyyC     ssk  tu",
"ut  k5  3a55CCCCCCCC     5 k  tu",
"ut  k   :ar  n    h4       k  tu",
"ut  k    :a nn    h        k  tu",
"ut  k     an6    3h        k  tu",
"ut  k     na       h       k  tu",
"ut  k     n a       h      k  tu",
"ut  k   5n   a       h     k  tu",
"ut  k    n   a        hh   k  tu",
"ut  k    x   a        5h3  k  tu",
"ut  kkkkkkkkkkkkkkkkkkkkkkkk  tu",
"ut u                        u tu",
"ut                            tu",
"uttttttttttttttttttttttttttttttu",
"uuuuuuuuuuuuuuuuuuuuuuuuuuuuuuuu"
};
