/* XPM */
static char *_645448611027[] = {
/* columns rows colors chars-per-pixel */
"32 32 34 1 ",
"  c #4D2109",
". c #4E2109",
"X c #4D2209",
"o c #4E2209",
"O c #4F2209",
"+ c #4F2309",
"@ c #512309",
"# c #50230A",
"$ c #51230A",
"% c #51240A",
"& c #52240A",
"* c #58280B",
"= c #743810",
"- c #753910",
"; c #773A10",
": c #773A11",
"> c #783B11",
", c #7A3C11",
"< c #7B3D12",
"1 c #7C3E12",
"2 c #7E3E12",
"3 c #AC601E",
"4 c #AD611E",
"5 c #E37E25",
"6 c #E47F25",
"7 c #E57F26",
"8 c #E67F26",
"9 c #E58026",
"0 c #E68026",
"q c #E78026",
"w c #E68126",
"e c #E78126",
"r c #E88126",
"t c None",
/* pixels */
"tttttttttttttttttttttttttttttttt",
"tttttttttttttttttttttttttttttttt",
"tttttttttttttttttttttttttttttttt",
"tttttttttttttttttttttttttttttttt",
"tttttttttttttttttttttttttttttttt",
"tttttttttttttttttttttttttttttttt",
"ttttttttttttrrrrrrrrrttttttttttt",
"ttttttttttrro#rrrrrrrrrttttttttt",
"tttttttttrrroorr8o#rrrrrtttttttt",
"ttttttttrrrr44rrro#rrrrrrttttttt",
"tttttttrroorrr058448roo8rrtttttt",
"ttttttrrro#rr0ooorrrroorrrrttttt",
"tttttrrrr44rrroo#0rrroorrrrrtttt",
"tttttrrrr88rrro%*rrrr44rrrrrtttt",
"tttttr%orro#r8444rrrrr8rrrrrtttt",
"tttttroorro#rr008rrrrrrrooortttt",
"tttttr44rr.or8rrrrrr0rr0+O%0tttt",
"tttttrrrrr33rooorrroO0r8444rtttt",
"tttttrrrrrrrr#oo8rroOOrrr0rrtttt",
"tttttrrrrrrrr444rrr4O#rrrrrrtttt",
"ttttttrrr.o8r000rr8r448roorttttt",
"ttttttrrro#rrrrroorrr8rr#otttttt",
"ttttttt,r44rrrr0o#8rrrr842tttttt",
"tttttttt==;-rrr544rr====:ttttttt",
"ttttttttttt:==::,,===:tttttttttt",
"tttttttttttt===::==:=ttttttttttt",
"tttttttttttttttttttttttttttttttt",
"tttttttttttttttttttttttttttttttt",
"tttttttttttttttttttttttttttttttt",
"tttttttttttttttttttttttttttttttt",
"tttttttttttttttttttttttttttttttt",
"tttttttttttttttttttttttttttttttt"
};
