/* XPM */
static char *_645448580910[] = {
/* columns rows colors chars-per-pixel */
"32 32 39 1 ",
"  c black",
". c #000001",
"X c #010101",
"o c #010102",
"O c #020202",
"+ c #020203",
"@ c #020204",
"# c #030305",
"$ c #030306",
"% c #040406",
"& c #040407",
"* c #070707",
"= c #07070C",
"- c #0B0B14",
"; c #0C0C17",
": c #0C0D17",
"> c #0C0D18",
", c #0D0D18",
"< c #0F101B",
"1 c #0F101C",
"2 c #131322",
"3 c #131422",
"4 c #141424",
"5 c #141525",
"6 c #17182A",
"7 c #17182B",
"8 c #18192C",
"9 c #18192D",
"0 c #191A2D",
"q c #18192E",
"w c #191A2E",
"e c #1A1B2F",
"r c #1A1B30",
"t c #1A1B31",
"y c #3E3D3F",
"u c #3F3E40",
"i c #403F41",
"p c #414042",
"a c None",
/* pixels */
"aaaaaaaaaaaaaaaaaaaaaaaaaaaaaaaa",
"aaaaaaaaaaaaaaaaaaaaaaaaaaaaaaaa",
"aaaaaaaaaaaaaaaaaaaaaaaaaaaaaaaa",
"aaaaaaaaappppppppppppppaaaaaaaaa",
"aaaaaaaaappppppppppppppaaaaaaaaa",
"aaaaaaaaip            piaaaaaaaa",
"aaaaaaaapp  %><341;%  ppaaaaaaaa",
"aaaaaaaip* -wwwttwww- *piaaaaaaa",
"aaaaaaaii $6rrwttwrr6$ iiaaaaaaa",
"aaaaaauy  >wrrtttrrrw>  uiaaaaaa",
"aaaaaauu  6trrrrwrrrt6  uuaaaaaa",
"aaaaauy  $wtrrrrrrrrwt$  uuaaaaa",
"aaaaaiu =wrrrrrrrrrrrrw= uiaaaaa",
"aaaauu  4werrrrrrrrrrrt4  uuaaaa",
"aaaayy %trrrrrrrrrrrrrrw% yyaaaa",
"aaaiu  1twrrrrrrrrrrrrrt1  uiaaa",
"aaaiu  1rrrrrrrrrrrrrrrr1  uiaaa",
"aaaayy %rrrrrrrrrrrrrrrr& yyaaaa",
"aaaauu  4rrrrrrrrrrrtwt4  iuaaaa",
"aaaaapu =wrrrrrrrrrrtww= iiaaaaa",
"aaaaauy  $errrrrrrrrrr$  yuaaaaa",
"aaaaaauu  6rrrrrrrrrr6  uuaaaaaa",
"aaaaaauy  >wrrrrrtwww>  yuaaaaaa",
"aaaaaaaup $7rrwrrttt6% iiaaaaaaa",
"aaaaaaaiy* ;wwereeee; %uiaaaaaaa",
"aaaaaaaapp  %;133<;&  piaaaaaaaa",
"aaaaaaaapp            piaaaaaaaa",
"aaaaaaaaappppppppppppppaaaaaaaaa",
"aaaaaaaaappppppppppppppaaaaaaaaa",
"aaaaaaaaaaaaaaaaaaaaaaaaaaaaaaaa",
"aaaaaaaaaaaaaaaaaaaaaaaaaaaaaaaa",
"aaaaaaaaaaaaaaaaaaaaaaaaaaaaaaaa"
};
