/* XPM */
static char *_645448572845[] = {
/* columns rows colors chars-per-pixel */
"32 32 55 1 ",
"  c black",
". c #010100",
"X c #25311F",
"o c #253120",
"O c #263220",
"+ c #263321",
"@ c #74B654",
"# c #75B755",
"$ c #75B855",
"% c #76B856",
"& c #77B857",
"* c #77B957",
"= c #77BA56",
"- c #77BB57",
"; c #79BD58",
": c #7ABE58",
"> c #A4F97A",
", c #A5FA7B",
"< c #A5FB7B",
"1 c #A6FB7B",
"2 c #A6FC7B",
"3 c #A6FD7B",
"4 c #A7FB7C",
"5 c #A6FC7C",
"6 c #A6FD7C",
"7 c #A7FD7C",
"8 c #A7FE7C",
"9 c #A7FE7D",
"0 c #A8FE7D",
"q c #A8FF7D",
"w c #A8FF7E",
"e c #EEF6EA",
"r c #EFF3EC",
"t c #F1F7EF",
"y c #F0FAEB",
"u c #F2F8EE",
"i c #F4FBF1",
"p c #F5F9F2",
"a c #F5FAF2",
"s c #F4FDF0",
"d c #F5FCF1",
"f c #F5FCF2",
"g c #F6FDF2",
"h c #F7FEF3",
"j c #F7F8F7",
"k c #F7FDF7",
"l c #F8FCF5",
"z c #F8FEF5",
"x c #F9FDF7",
"c c #FAFCFA",
"v c #FBFDFB",
"b c #FAFEFA",
"n c #FEFEFD",
"m c white",
"M c None",
/* pixels */
"MMMMMMMMMMMMMMMMMMMMMMMMMMMMMMMM",
"MMMMMMMMMMMMMMMMMMMMMMMMMMMMMMMM",
"MMMMMMMqqMMMMMMMMMMMMMMMqqMMMMMM",
"MMMMMMMqqMMMMMMMMMMMMMMMqqMMMMMM",
"MMMMMMMMq&MMMMMMMMMMMMMMq&MMMMMM",
"MMMMMMMMqq&MMMMMMMMMMMMqq&MMMMMM",
"MMMMMMMMMq<&MMMMMMMMMMMq&MMMMMMM",
"MMMMMMMMMMM&qqqqqqqqqMM&MMMMMMMM",
"MMMMMMMMMMqqqqqqqqqqqqq&MMMMMMMM",
"MMMMMMMMqqqqqqqqqqqqqqqqqMMMMMMM",
"MMMMMM77qqqqqqqqqqqqqqqqqqqMMMMM",
"MMMMMq77qqqqqqqqqqqqqqqqqqqqMMMM",
"MMMMMq7777qqqqqqqqqqqq<77qqqMMMM",
"MMMMqq7ooooq7qqqqqqqqooooqqqqMMM",
"MMMMq7orpyso<qqqqqq<olpstoqqqMMM",
"MMMqq7ot mlo7qqqqqq<os mmo7qqqMM",
"MMMq7<oemmpo7qqqqqq<okmmkoqqqqMM",
"MMMqq<ovmvj+w77qqqq<oalbso7qqqMM",
"MMMqqq7oooo77 7q7q <7oooo7qqqqMM",
"MMMqqqq777w7w7    qqqq77qqqqq&MM",
"MMMMqqqqqqqqqqq7<qqqqqqqqqqq7#MM",
"MMMMqqqqqqqqqqqqqqqqqqqqqqq7%%MM",
"MMMMMqqqqqqqqqqqqqqqqqqqqqq&##MM",
"MMMMMqqqqqqqqqqqqqqqqqqqqq;&#MMM",
"MMMMM#qq7qqqqqqqqqqqqqqqq;%#MMMM",
"MMMMMM##77qqqqqqqqqqqqq%%%%MMMMM",
"MMMMMM77%%77qqqqqq77q%###7MMMMMM",
"MMMMMMq777@#%%####%%%%##qqMMMMMM",
"MMMMMMMqqq77MMMMMMMMMq7qqqMMMMMM",
"MMMMMMMMqqqMMMMMMMMMMMqqqMMMMMMM",
"MMMMMMMMMMMMMMMMMMMMMMMMMMMMMMMM",
"MMMMMMMMMMMMMMMMMMMMMMMMMMMMMMMM"
};
