/* XPM */
static char *_645448550796[] = {
/* columns rows colors chars-per-pixel */
"32 32 2 1 ",
"  c #563672",
". c #8E5CB8",
/* pixels */
"                                ",
" .............................. ",
" .    ....................    . ",
" .............................. ",
" .............................. ",
" .............................. ",
" .............................. ",
" .............................. ",
" .............................. ",
" .............................. ",
" .............................. ",
" .............................. ",
" .............................. ",
" .............................. ",
" .............................. ",
" .............................. ",
" .............................. ",
" .............................. ",
" .............................. ",
" .............................. ",
" .............................. ",
" .............................. ",
" .............................. ",
" .............................. ",
" .............................. ",
" .............................. ",
" .............................. ",
" .............................. ",
" .............................. ",
" .    ....................    . ",
" .............................. ",
"                                "
};
